# xmcd
#
# Track frame offsets:
#	150
#	12757
#	35694
#	54784
#	68575
#	85885
#
# Disc length: 1356 seconds
#
# Revision: 0
# Processed by: cddbd v1.5.2PL0 Copyright (c) Steve Scherf et al.
# Submitted via: audiograbber 1.83.01
#
DISCID=3d054a06
DTITLE=Chuck Beattie - A Sample Of The Blues
DYEAR=2002
DGENRE=Blues
TTITLE0=Messin' With The Kid
TTITLE1=The Thrill Is Gone
TTITLE2=She Caught The Katy
TTITLE3=Caledonia
TTITLE4=Hey Bartender
TTITLE5=She Just Wanna Dance
EXTD=
EXTT0=
EXTT1=
EXTT2=
EXTT3=
EXTT4=
EXTT5=
PLAYORDER=
